<svg width="393" height="95" viewBox="0 0 393 95" fill="none" xmlns="http://www.w3.org/2000/svg">
    <path d="M0 31.6667L41.1362 7.91667V0L0 23.75V31.6667Z" fill="url(#paint0_linear)"/>
    <path d="M41.1362 47.5L0 23.75V31.6667L41.1362 55.4167V47.5Z" fill="#171735"/>
    <path d="M82.2721 71.25V23.75L75.416 27.7083V75.2083L82.2721 71.25Z" fill="url(#paint1_linear)"/>
    <path d="M82.2729 23.75L41.1367 47.5V55.4167L82.2729 31.6667V23.75Z" fill="#232345"/>
    <path d="M82.2729 63.333L41.1367 87.083V94.9997L82.2729 71.2497V63.333Z" fill="#232345"/>
    <path d="M27.425 87.0833V55.4167L13.7129 47.5L20.5689 59.375V83.125L27.425 87.0833Z" fill="url(#paint2_linear)"/>
    <path d="M20.5684 75.208V83.1247L41.1365 94.9997V87.083L20.5684 75.208Z" fill="#171735"/>
    <path d="M54.848 7.91699V15.8337L27.4238 31.6668V23.7503L54.848 7.91699Z" fill="url(#paint3_linear)"/>
    <path d="M68.5609 15.833V23.7497L41.1367 39.583V31.6663L68.5609 15.833Z" fill="#1DD882"/>
    <path d="M27.4238 23.75L41.1359 31.6667V39.5833L27.4238 31.6667V23.75Z" fill="#13C674"/>
    <path d="M0 63.333V71.2497L13.7121 79.1663V71.2497L0 63.333Z" fill="#171735"/>
    <path d="M112.868 52.3457C112.949 55.1052 114.968 56.485 118.927 56.485C120.447 56.485 121.687 56.165 122.647 55.5252C123.647 54.8452 124.147 54.0653 124.147 53.1855C124.147 52.3057 123.847 51.6258 123.247 51.1459C122.647 50.6659 121.707 50.226 120.427 49.8261L114.068 47.5464C109.349 45.9066 106.989 43.2271 106.989 39.5077C106.989 37.0281 108.089 35.0484 110.289 33.5687C112.529 32.0489 115.508 31.2891 119.227 31.2891C122.987 31.2891 125.866 32.1089 127.866 33.7487C129.906 35.3885 130.965 37.448 131.046 39.9277H124.387C124.307 38.9678 123.847 38.208 123.007 37.648C122.167 37.0881 120.967 36.8082 119.407 36.8082C117.848 36.8082 116.628 37.1282 115.748 37.768C114.908 38.3679 114.488 39.0678 114.488 39.8677C114.488 41.2675 115.668 42.3072 118.028 42.9872L124.927 45.5668C127.206 46.3266 128.946 47.3065 130.146 48.5063C131.385 49.6662 132.005 51.1858 132.005 53.0655C132.005 55.4652 130.866 57.5448 128.586 59.3045C126.226 61.1442 123.107 62.0641 119.227 62.0641C115.348 62.0641 112.229 61.2242 109.869 59.5445C107.509 57.8248 106.309 55.4252 106.27 52.3457H112.868Z" fill="#232345"/>
    <path d="M157.495 60.5048C154.856 61.5447 152.777 62.0645 151.256 62.0645C149.736 62.0645 148.397 61.8846 147.237 61.5246C146.117 61.1647 145.117 60.6248 144.237 59.9049C142.398 58.2651 141.478 56.0055 141.478 53.126V36.8086H137.398V32.0694H141.478V24.3906H148.557V32.0694H156.475V36.8086H148.557V52.886C148.557 55.2856 149.696 56.4854 151.976 56.4854C153.136 56.4854 154.636 56.1654 156.475 55.5256L157.495 60.5048Z" fill="#232345"/>
    <path d="M165.84 32.0095H172.919V61.2248H165.84V32.0095ZM165 22.651C165 21.3712 165.379 20.3714 166.14 19.6515C166.899 18.8917 167.979 18.5117 169.379 18.5117C170.738 18.5117 171.798 18.8917 172.559 19.6515C173.358 20.3714 173.759 21.3712 173.759 22.651C173.759 23.9309 173.358 24.9507 172.559 25.7106C171.798 26.4304 170.738 26.7904 169.379 26.7904C167.979 26.7904 166.899 26.4304 166.14 25.7106C165.379 24.9507 165 23.9309 165 22.651Z" fill="#232345"/>
    <path d="M212.073 61.2241H203.435L196.236 51.8656L189.517 61.2241H180.818L192.157 46.7064L180.818 32.0088H189.517L196.656 41.3673L203.435 32.0088H212.073L200.795 46.7064L212.073 61.2241Z" fill="#232345"/>
    <path d="M216.352 40.0479H233.209V46.2269H216.352V40.0479Z" fill="#232345"/>
    <path d="M244.584 49.2863C242.223 47.2866 241.044 44.787 241.044 41.7875C241.044 38.6281 242.283 36.0684 244.764 34.1088C247.163 32.229 249.902 31.2892 252.982 31.2892C256.102 31.2892 258.7 31.8691 260.781 33.0289C261.021 30.7493 262 28.9096 263.721 27.5098C265.4 26.11 267.38 25.4102 269.66 25.4102L269.3 32.1891C265.86 32.1891 264.08 33.3289 263.96 35.6085C265.44 37.4482 266.18 39.3279 266.18 41.2476C266.18 43.1673 265.839 44.787 265.16 46.1068C264.48 47.3867 263.559 48.4665 262.401 49.3463C260.001 51.266 257.08 52.2258 253.642 52.2258C251.681 52.2258 249.902 51.9259 248.303 51.326C246.702 51.8059 245.903 52.7657 245.903 54.2055C245.903 56.0052 247.422 56.9051 250.463 56.9051H260.241C266.879 56.9051 270.199 59.2246 270.199 63.864C270.199 65.4237 269.798 66.9435 269 68.4232C268.239 69.943 267.119 71.2827 265.64 72.4426C262.36 75.0021 258.241 76.2819 253.282 76.2819C248.483 76.2819 244.584 75.302 241.584 73.3424C238.783 71.4627 237.385 69.1631 237.385 66.4435C237.385 64.6438 237.925 63.2041 239.005 62.1242C240.124 61.0843 241.584 60.4244 243.384 60.1445C241.024 58.7048 239.844 56.9251 239.844 54.8054C239.844 53.4056 240.283 52.2459 241.164 51.326C242.043 50.3661 243.183 49.6862 244.584 49.2863ZM249.983 61.8843C246.222 62.0442 244.344 63.4641 244.344 66.1436C244.344 67.5033 245.124 68.5831 246.683 69.3831C248.282 70.2229 250.163 70.6429 252.322 70.6429C254.482 70.6429 256.162 70.4629 257.362 70.1029C258.601 69.743 259.641 69.2631 260.481 68.6632C262.281 67.4634 263.181 66.0236 263.181 64.3439C263.181 63.624 262.92 63.0241 262.401 62.5442C261.921 62.1042 261.201 61.8843 260.241 61.8843H249.983ZM259.161 41.7275C259.161 40.0877 258.7 38.7679 257.781 37.7682C256.9 36.7283 255.541 36.2084 253.702 36.2084C251.861 36.2084 250.463 36.7283 249.503 37.7682C248.543 38.7679 248.063 40.0877 248.063 41.7275C248.063 43.3272 248.543 44.647 249.503 45.6869C250.463 46.7268 251.861 47.2466 253.702 47.2466C255.541 47.2466 256.9 46.7268 257.781 45.6869C258.7 44.647 259.161 43.3272 259.161 41.7275Z" fill="#232345"/>
    <path d="M287.093 44.187C289.412 44.187 292.091 44.567 295.132 45.3268V42.4473C295.132 40.4076 294.712 38.9078 293.872 37.948C293.071 36.9482 291.731 36.4482 289.852 36.4482C288.012 36.4482 286.592 36.8282 285.593 37.588C284.592 38.3079 284.093 39.3478 284.093 40.7075H276.355C276.355 37.388 277.513 34.9884 279.834 33.5087C282.193 32.029 285.473 31.2891 289.673 31.2891C295.672 31.2891 299.55 33.3887 301.311 37.588C301.911 39.0278 302.21 40.7276 302.21 42.6872V61.2242H296.031L295.492 57.3249C293.611 60.4843 290.732 62.0641 286.853 62.0641C283.092 62.0641 280.173 61.1442 278.094 59.3045C276.175 57.5448 275.215 55.3251 275.215 52.6456C275.215 49.926 276.274 47.8464 278.394 46.4066C280.513 44.9269 283.413 44.187 287.093 44.187ZM295.132 49.8261C292.771 49.1862 290.572 48.8662 288.533 48.8662C284.693 48.8662 282.774 50.1461 282.774 52.7056C282.774 53.7854 283.212 54.7252 284.093 55.5252C284.973 56.285 286.373 56.665 288.293 56.665C290.252 56.665 291.851 56.0251 293.092 54.7453C294.371 53.4255 295.051 51.7857 295.132 49.8261Z" fill="#232345"/>
    <path d="M329.48 60.5048C326.84 61.5447 324.761 62.0645 323.241 62.0645C321.72 62.0645 320.382 61.8846 319.221 61.5246C318.102 61.1647 317.101 60.6248 316.222 59.9049C314.383 58.2651 313.462 56.0055 313.462 53.126V36.8086H309.383V32.0694H313.462V24.3906H320.541V32.0694H328.46V36.8086H320.541V52.886C320.541 55.2856 321.681 56.4854 323.96 56.4854C325.121 56.4854 326.621 56.1654 328.46 55.5256L329.48 60.5048Z" fill="#232345"/>
    <path d="M357.561 35.5484C358.56 36.8282 359.301 38.3079 359.781 39.9877C360.3 41.6674 360.561 43.2071 360.561 44.6069C360.561 46.0067 360.48 47.2665 360.321 48.3863H341.484C341.563 50.746 342.144 52.6657 343.223 54.1454C344.303 55.6251 345.942 56.365 348.143 56.365C351.062 56.365 352.801 55.0852 353.362 52.5256H360.501C360.021 55.4451 358.68 57.7448 356.481 59.4245C354.202 61.1843 351.422 62.0641 348.143 62.0641C344.303 62.0641 341.083 60.6643 338.484 57.8648C335.803 54.9453 334.465 51.2058 334.465 46.6466C334.465 41.9673 335.803 38.208 338.484 35.3684C341.043 32.6488 344.262 31.2891 348.143 31.2891C352.181 31.2891 355.321 32.7088 357.561 35.5484ZM348.203 36.9282C346.202 36.9282 344.643 37.588 343.523 38.9078C342.402 40.1877 341.742 41.8474 341.544 43.887H353.962C353.962 40.7276 352.961 38.6079 350.962 37.5281C350.201 37.1282 349.282 36.9282 348.203 36.9282Z" fill="#232345"/>
    <path d="M373.507 52.3457C373.588 55.1052 375.607 56.485 379.566 56.485C381.087 56.485 382.326 56.165 383.286 55.5252C384.287 54.8452 384.785 54.0653 384.785 53.1855C384.785 52.3057 384.485 51.6258 383.885 51.1459C383.286 50.6659 382.346 50.226 381.066 49.8261L374.707 47.5464C369.988 45.9066 367.628 43.2271 367.628 39.5077C367.628 37.0281 368.729 35.0484 370.928 33.5687C373.168 32.0489 376.147 31.2891 379.866 31.2891C383.627 31.2891 386.506 32.1089 388.505 33.7487C390.544 35.3885 391.605 37.448 391.684 39.9277H385.025C384.946 38.9678 384.485 38.208 383.646 37.648C382.806 37.0881 381.606 36.8082 380.046 36.8082C378.486 36.8082 377.268 37.1282 376.387 37.768C375.547 38.3679 375.127 39.0678 375.127 39.8677C375.127 41.2675 376.308 42.3072 378.666 42.9872L385.565 45.5668C387.845 46.3266 389.585 47.3065 390.784 48.5063C392.025 49.6662 392.644 51.1858 392.644 53.0655C392.644 55.4652 391.504 57.5448 389.225 59.3045C386.866 61.1442 383.747 62.0641 379.866 62.0641C375.987 62.0641 372.868 61.2242 370.508 59.5445C368.149 57.8248 366.949 55.4252 366.908 52.3457H373.507Z" fill="#232345"/>
    <defs>
        <linearGradient id="paint0_linear" x1="41.1362" y1="3.77082" x2="3.1515e-07" y2="28.624" gradientUnits="userSpaceOnUse">
            <stop stop-color="#232345"/>
            <stop offset="0.865664" stop-color="#0D0D22"/>
        </linearGradient>
        <linearGradient id="paint1_linear" x1="78.844" y1="25.7958" x2="78.844" y2="72.9311" gradientUnits="userSpaceOnUse">
            <stop stop-color="#0D0D22"/>
            <stop offset="0.345724" stop-color="#171735"/>
            <stop offset="0.677533" stop-color="#13132D"/>
            <stop offset="1" stop-color="#0D0D22"/>
        </linearGradient>
        <linearGradient id="paint2_linear" x1="20.5689" y1="47.5" x2="20.5689" y2="87.0833" gradientUnits="userSpaceOnUse">
            <stop offset="0.10064" stop-color="#0B0B21"/>
            <stop offset="0.829292" stop-color="#171735"/>
        </linearGradient>
        <linearGradient id="paint3_linear" x1="54.848" y1="11.9984" x2="27.4238" y2="28.1101" gradientUnits="userSpaceOnUse">
            <stop stop-color="#1DD882"/>
            <stop offset="0.812154" stop-color="#09B466"/>
        </linearGradient>
    </defs>
</svg>
