<svg width="54" height="54" viewBox="0 0 54 54" fill="none" xmlns="http://www.w3.org/2000/svg">
<path d="M39.4714 7.71429C39.4714 3.95788 42.5293 0.9 46.2857 0.9C50.0421 0.9 53.1 3.95788 53.1 7.71429C53.1 11.4707 50.0421 14.5286 46.2857 14.5286H39.4714V7.71429ZM7.71429 14.5286C3.95788 14.5286 0.9 11.4707 0.9 7.71429C0.9 3.95788 3.95788 0.9 7.71429 0.9C11.4707 0.9 14.5286 3.95788 14.5286 7.71429V14.5286H7.71429ZM14.5286 46.2857C14.5286 50.0421 11.4707 53.1 7.71429 53.1C3.95788 53.1 0.9 50.0421 0.9 46.2857C0.9 42.5293 3.95788 39.4714 7.71429 39.4714H14.5286V46.2857ZM46.2857 53.1C42.5293 53.1 39.4714 50.0421 39.4714 46.2857V39.4714H46.2857C50.0421 39.4714 53.1 42.5293 53.1 46.2857C53.1 50.0421 50.0421 53.1 46.2857 53.1Z" stroke="#1DD882" stroke-width="1.8"/>
<rect x="17.3555" y="17.3574" width="19.2857" height="19.2857" stroke="#191938" stroke-width="1.8"/>
</svg>
