<svg width="76" height="54" viewBox="0 0 76 54" fill="none" xmlns="http://www.w3.org/2000/svg">
<path d="M8.58418 41.6251L5.83895 44.3703C5.45993 44.7493 5.45993 45.364 5.83895 45.743C6.21796 46.122 6.83263 46.122 7.21164 45.743L9.27053 43.6841L11.3294 45.743C11.7084 46.122 12.3231 46.122 12.7021 45.743C13.0811 45.364 13.0811 44.7493 12.7021 44.3703L9.95688 41.6251C9.57786 41.2461 8.9632 41.2461 8.58418 41.6251Z" fill="#1DD882"/>
<path d="M19.6311 41.2891L16.8858 44.0344C16.5068 44.4134 16.5068 45.0281 16.8858 45.4071C17.2648 45.7861 17.8795 45.7861 18.2585 45.4071L20.3174 43.3482L22.3763 45.4071C22.7553 45.7861 23.37 45.7861 23.749 45.4071C24.128 45.0281 24.128 44.4134 23.749 44.0344L21.0038 41.2891C20.6247 40.9101 20.0101 40.9101 19.6311 41.2891Z" fill="#1DD882"/>
<path d="M31.0217 41.2891L28.2764 44.0344C27.8974 44.4134 27.8974 45.0281 28.2764 45.4071C28.6555 45.7861 29.2701 45.7861 29.6491 45.4071L31.708 43.3482L33.7669 45.4071C34.1459 45.7861 34.7606 45.7861 35.1396 45.4071C35.5186 45.0281 35.5186 44.4134 35.1396 44.0344L32.3944 41.2891C32.0154 40.9101 31.4007 40.9101 31.0217 41.2891Z" fill="#1DD882"/>
<path d="M42.4123 41.6251L39.6671 44.3703C39.2881 44.7493 39.2881 45.364 39.6671 45.743C40.0461 46.122 40.6608 46.122 41.0398 45.743L43.0987 43.6841L45.1575 45.743C45.5366 46.122 46.1512 46.122 46.5302 45.743C46.9093 45.364 46.9093 44.7493 46.5302 44.3703L43.785 41.6251C43.406 41.2461 42.7913 41.2461 42.4123 41.6251Z" fill="#1DD882"/>
<path d="M53.4592 41.2891L50.7139 44.0344C50.3349 44.4134 50.3349 45.0281 50.7139 45.4071C51.093 45.7861 51.7076 45.7861 52.0866 45.4071L54.1455 43.3482L56.2044 45.4071C56.5834 45.7861 57.1981 45.7861 57.5771 45.4071C57.9561 45.0281 57.9561 44.4134 57.5771 44.0344L54.8319 41.2891C54.4529 40.9101 53.8382 40.9101 53.4592 41.2891Z" fill="#1DD882"/>
<path d="M64.8498 41.2891L62.1046 44.0344C61.7256 44.4134 61.7256 45.0281 62.1046 45.4071C62.4836 45.7861 63.0983 45.7861 63.4773 45.4071L65.5362 43.3482L67.595 45.4071C67.9741 45.7861 68.5887 45.7861 68.9677 45.4071C69.3468 45.0281 69.3468 44.4134 68.9677 44.0344L66.2225 41.2891C65.8435 40.9101 65.2288 40.9101 64.8498 41.2891Z" fill="#1DD882"/>
<path d="M72.6033 53.3798L75.3486 50.6346C75.7276 50.2556 75.7276 49.6409 75.3486 49.2619C74.9695 48.8829 74.3549 48.8829 73.9759 49.2619L71.917 51.3208L69.8581 49.2619C69.4791 48.8829 68.8644 48.8829 68.4854 49.2619C68.1064 49.6409 68.1064 50.2556 68.4854 50.6346L71.2306 53.3798C71.6096 53.7588 72.2243 53.7588 72.6033 53.3798Z" fill="#1DD882"/>
<path d="M61.5564 53.7157L64.3017 50.9705C64.6807 50.5915 64.6807 49.9768 64.3017 49.5978C63.9227 49.2188 63.308 49.2188 62.929 49.5978L60.8701 51.6567L58.8112 49.5978C58.4322 49.2188 57.8175 49.2188 57.4385 49.5978C57.0595 49.9768 57.0595 50.5915 57.4385 50.9705L60.1837 53.7157C60.5628 54.0948 61.1774 54.0948 61.5564 53.7157Z" fill="#1DD882"/>
<path d="M50.1658 53.7157L52.9111 50.9705C53.2901 50.5915 53.2901 49.9768 52.9111 49.5978C52.532 49.2188 51.9174 49.2188 51.5384 49.5978L49.4795 51.6567L47.4206 49.5978C47.0416 49.2188 46.4269 49.2188 46.0479 49.5978C45.6689 49.9768 45.6689 50.5915 46.0479 50.9705L48.7931 53.7157C49.1721 54.0948 49.7868 54.0948 50.1658 53.7157Z" fill="#1DD882"/>
<path d="M38.7752 53.3798L41.5204 50.6346C41.8994 50.2556 41.8994 49.6409 41.5204 49.2619C41.1414 48.8829 40.5267 48.8829 40.1477 49.2619L38.0888 51.3208L36.03 49.2619C35.6509 48.8829 35.0363 48.8829 34.6573 49.2619C34.2782 49.6409 34.2782 50.2556 34.6573 50.6346L37.4025 53.3798C37.7815 53.7588 38.3962 53.7588 38.7752 53.3798Z" fill="#1DD882"/>
<path d="M27.7283 53.7157L30.4736 50.9705C30.8526 50.5915 30.8526 49.9768 30.4736 49.5978C30.0945 49.2188 29.4799 49.2188 29.1009 49.5978L27.042 51.6567L24.9831 49.5978C24.6041 49.2188 23.9894 49.2188 23.6104 49.5978C23.2314 49.9768 23.2314 50.5915 23.6104 50.9705L26.3556 53.7157C26.7346 54.0948 27.3493 54.0948 27.7283 53.7157Z" fill="#1DD882"/>
<path d="M16.3377 53.7157L19.0829 50.9705C19.4619 50.5915 19.4619 49.9768 19.0829 49.5978C18.7039 49.2188 18.0892 49.2188 17.7102 49.5978L15.6513 51.6567L13.5925 49.5978C13.2134 49.2188 12.5988 49.2188 12.2198 49.5978C11.8407 49.9768 11.8407 50.5915 12.2198 50.9705L14.965 53.7157C15.344 54.0948 15.9587 54.0948 16.3377 53.7157Z" fill="#1DD882"/>
<path d="M5.40019 53.7157L8.14543 50.9705C8.52444 50.5915 8.52444 49.9768 8.14543 49.5978C7.76641 49.2188 7.15175 49.2188 6.77273 49.5978L4.71384 51.6567L2.65496 49.5978C2.27594 49.2188 1.66127 49.2188 1.28226 49.5978C0.903244 49.9768 0.903244 50.5915 1.28226 50.9705L4.02749 53.7157C4.40651 54.0948 5.02118 54.0948 5.40019 53.7157Z" fill="#1DD882"/>
<path d="M19.7848 35.2061L17.5421 38.3475L18.8863 39.3749L21.4703 35.7576C21.6618 35.4908 21.6805 35.1384 21.5203 34.8522C20.7953 33.558 20.2253 32.1834 19.8247 30.7664C19.7357 30.4506 19.4723 30.2143 19.1488 30.1609L14.7082 29.4224C14.35 29.3877 14.0807 29.0879 14.0807 28.7254V22.5308C14.0807 22.1674 14.3508 21.8668 14.7658 21.8227L19.1497 21.0918C19.4732 21.0376 19.7374 20.8021 19.8255 20.487C20.2295 19.0616 20.7996 17.6879 21.5212 16.4039C21.6812 16.1176 21.6626 15.7644 21.4712 15.4968L18.8533 11.832C18.6245 11.5533 18.644 11.1502 18.8998 10.8944L23.281 6.5131C23.5275 6.26495 23.901 6.20649 24.2652 6.49786L27.8859 9.0836C28.1519 9.27506 28.5051 9.29373 28.793 9.1336C30.0761 8.41116 31.4499 7.84199 32.8762 7.43797C33.1913 7.34902 33.4275 7.08563 33.4809 6.76209L34.2177 2.32327C34.2533 1.96414 34.5531 1.69396 34.9165 1.69396H41.112C41.4744 1.69396 41.7751 1.96489 41.82 2.38164L42.5501 6.76544C42.6043 7.08898 42.8398 7.35321 43.1548 7.44132C44.5785 7.8445 45.9524 8.41451 47.2389 9.13695C47.5242 9.297 47.8782 9.27841 48.1451 9.08695L51.809 6.46737C52.0766 6.24803 52.501 6.26913 52.7474 6.51561L57.1286 10.8987C57.3844 11.1544 57.4056 11.5576 57.1438 11.8812L54.5581 15.5001C54.3667 15.7669 54.348 16.1201 54.5081 16.4072C55.2305 17.6912 55.8005 19.0649 56.2021 20.4895C56.2918 20.8055 56.5544 21.0409 56.8788 21.0951L61.3185 21.8336C61.6717 21.8683 61.9478 22.1758 61.9478 22.5323V28.7269C61.9478 29.0835 61.6709 29.3892 61.2626 29.4316L56.8778 30.1626C56.5535 30.2168 56.2902 30.4522 56.2012 30.7681C55.7997 32.1927 55.2305 33.5664 54.5073 34.8522C54.3472 35.1393 54.3658 35.4924 54.5573 35.7592L57.176 39.4206L58.4904 38.3475L56.2453 35.2043C56.8271 34.1 57.3082 32.9396 57.68 31.7437L61.4845 31.1076C62.7152 30.9883 63.6426 29.9643 63.6426 28.7252V22.5307C63.6426 21.2932 62.7161 20.2684 61.5422 20.1533L57.6801 19.5087C57.3082 18.3137 56.828 17.1542 56.2454 16.0498L58.4889 12.9059C59.2706 11.9479 59.2004 10.5683 58.3263 9.69674L53.9459 5.31462C53.4935 4.86236 52.8923 4.61337 52.2519 4.61337C51.6998 4.61337 51.1611 4.80566 50.7808 5.12073L47.5921 7.39735C46.4876 6.81553 45.3282 6.33438 44.134 5.9626L43.4979 2.15467C43.3733 0.926543 42.3486 0 41.1128 0H34.9174C33.6799 0 32.6543 0.92738 32.5399 2.10132L31.8971 5.9626C30.7012 6.33446 29.5418 6.81553 28.4382 7.39735L25.2926 5.15373C24.3728 4.40164 22.9271 4.47191 22.0826 5.31462L17.7013 9.69674C16.8255 10.5709 16.7578 11.9513 17.5082 12.8618L19.784 16.0497C19.2029 17.1541 18.721 18.3136 18.3492 19.5086L14.5431 20.1456C13.3141 20.2684 12.3867 21.2932 12.3867 22.5307V28.7252C12.3867 29.9643 13.3149 30.9892 14.4871 31.1018L18.3492 31.7462C18.7193 32.9363 19.2004 34.0966 19.7848 35.2061Z" fill="#191938"/>
<path d="M38.0155 35.7667C32.424 35.7667 27.875 31.2186 27.875 25.6278C27.875 20.0363 32.424 15.4873 38.0155 15.4873C43.6072 15.4873 48.1553 20.0363 48.1553 25.6278C48.1544 31.2177 43.6063 35.7667 38.0155 35.7667ZM38.0155 17.1812C33.3582 17.1812 29.5689 20.9705 29.5689 25.6278C29.5689 30.2844 33.3581 34.0728 38.0155 34.0728C42.6721 34.0728 46.4614 30.2844 46.4614 25.6278C46.4605 20.9704 42.672 17.1812 38.0155 17.1812Z" fill="#252549"/>
</svg>
