<svg width="1235" height="555" viewBox="0 0 1235 555" fill="none" xmlns="http://www.w3.org/2000/svg">
<path d="M0 184.752L240 46.188V0L0 138.564V184.752Z" fill="url(#paint0_linear)"/>
<path d="M240 277.128L0 138.564V184.752L240 323.316V277.128Z" fill="#171735"/>
<path d="M480 415.692V138.564L440 161.658V438.786L480 415.692Z" fill="url(#paint1_linear)"/>
<path d="M480 138.564L240 277.128V323.316L480 184.752V138.564Z" fill="#232345"/>
<path d="M480 369.504L240 508.068V554.256L480 415.692V369.504Z" fill="#232345"/>
<path d="M0 369.504V415.692L240 554.256V508.068L0 369.504Z" fill="#171735"/>
<path d="M320 46.1875V92.3755L160 184.752V138.564L320 46.1875Z" fill="url(#paint2_linear)"/>
<path d="M400 92.376V138.564L240 230.94V184.752L400 92.376Z" fill="#1DD882"/>
<path d="M160 138.564L240 184.752V230.94L160 184.752V138.564Z" fill="#13C674"/>
<path d="M40 254.034V300.222L160 369.504V323.316L40 254.034Z" fill="#13C674"/>
<path d="M280 392.598V438.786L400 369.504V323.316L280 392.598Z" fill="#1DD882"/>
<path d="M655.65 318.2C656.117 334.3 667.9 342.35 691 342.35C699.867 342.35 707.1 340.483 712.7 336.75C718.534 332.783 721.45 328.233 721.45 323.1C721.45 317.966 719.7 314 716.2 311.2C712.7 308.4 707.217 305.833 699.75 303.5L662.65 290.2C635.117 280.633 621.35 265 621.35 243.3C621.35 228.833 627.767 217.283 640.6 208.65C653.667 199.783 671.05 195.35 692.75 195.35C714.684 195.35 731.484 200.133 743.15 209.7C755.05 219.266 761.234 231.283 761.7 245.75H722.85C722.384 240.15 719.7 235.716 714.8 232.45C709.9 229.183 702.9 227.55 693.8 227.55C684.7 227.55 677.584 229.416 672.45 233.15C667.55 236.65 665.1 240.733 665.1 245.4C665.1 253.566 671.984 259.633 685.75 263.6L726 278.65C739.3 283.083 749.45 288.8 756.45 295.8C763.684 302.566 767.3 311.433 767.3 322.4C767.3 336.4 760.65 348.533 747.35 358.8C733.584 369.533 715.384 374.9 692.75 374.9C670.117 374.9 651.917 370 638.15 360.2C624.384 350.166 617.384 336.166 617.15 318.2H655.65Z" fill="#232345"/>
<path d="M916.021 365.8C900.621 371.866 888.487 374.9 879.621 374.9C870.754 374.9 862.937 373.85 856.171 371.75C849.637 369.65 843.804 366.5 838.671 362.3C827.937 352.733 822.571 339.55 822.571 322.75V227.55H798.771V199.9H822.571V155.1H863.871V199.9H910.071V227.55H863.871V321.35C863.871 335.35 870.521 342.35 883.821 342.35C890.587 342.35 899.337 340.483 910.071 336.75L916.021 365.8Z" fill="#232345"/>
<path d="M964.707 199.55H1006.01V370H964.707V199.55ZM959.807 144.95C959.807 137.483 962.023 131.65 966.457 127.45C970.89 123.016 977.19 120.8 985.357 120.8C993.29 120.8 999.473 123.016 1003.91 127.45C1008.57 131.65 1010.91 137.483 1010.91 144.95C1010.91 152.416 1008.57 158.366 1003.91 162.8C999.473 167 993.29 169.1 985.357 169.1C977.19 169.1 970.89 167 966.457 162.8C962.023 158.366 959.807 152.416 959.807 144.95Z" fill="#232345"/>
<path d="M1234.45 370H1184.05L1142.05 315.4L1102.85 370H1052.1L1118.25 285.3L1052.1 199.55H1102.85L1144.5 254.15L1184.05 199.55H1234.45L1168.65 285.3L1234.45 370Z" fill="#232345"/>
<defs>
<linearGradient id="paint0_linear" x1="240" y1="22" x2="1.21876e-05" y2="167" gradientUnits="userSpaceOnUse">
<stop stop-color="#232345"/>
<stop offset="0.865664" stop-color="#0D0D22"/>
</linearGradient>
<linearGradient id="paint1_linear" x1="460" y1="150.5" x2="460" y2="425.5" gradientUnits="userSpaceOnUse">
<stop stop-color="#0D0D22"/>
<stop offset="0.345724" stop-color="#171735"/>
<stop offset="0.677533" stop-color="#13132D"/>
<stop offset="1" stop-color="#0D0D22"/>
</linearGradient>
<linearGradient id="paint2_linear" x1="320" y1="69.9995" x2="160" y2="164" gradientUnits="userSpaceOnUse">
<stop stop-color="#1DD882"/>
<stop offset="0.812154" stop-color="#09B466"/>
</linearGradient>
</defs>
</svg>
