<svg width="47" height="54" viewBox="0 0 47 54" fill="none" xmlns="http://www.w3.org/2000/svg">
<path d="M23.4 28.7997C23.2398 28.7997 23.0795 28.7572 22.9366 28.6711L0.436294 15.1711C0.165619 15.008 0 14.7155 0 14.3999C0 14.0839 0.165619 13.7905 0.436294 13.6282L22.9366 0.128231C23.2208 -0.0427437 23.5772 -0.0427437 23.8627 0.128231L46.3626 13.6282C46.6336 13.7914 46.7993 14.0839 46.7993 14.3999C46.7993 14.7155 46.6336 15.0088 46.3626 15.1711L23.8627 28.6711C23.7206 28.7572 23.5603 28.7997 23.4 28.7997ZM2.64949 14.3999L23.4009 26.8501L44.1514 14.3999L23.4009 1.94921L2.64949 14.3999Z" fill="#141433"/>
<path d="M23.4002 54.0001C23.2383 54.0001 23.076 53.956 22.933 53.8695C22.664 53.7059 22.5 53.4151 22.5 53.0999V27.9003C22.5 27.5843 22.6656 27.291 22.9367 27.1287L45.4366 13.6287C45.7146 13.4614 46.0611 13.4569 46.3429 13.6171C46.6247 13.7766 46.7994 14.0761 46.7994 14.4003V41.4003C46.7994 41.7357 46.612 42.0434 46.3141 42.1983L23.8142 53.8983C23.6853 53.9659 23.5423 54.0001 23.4002 54.0001ZM24.3 28.4095V51.618L45.0003 40.854V15.9894L24.3 28.4095Z" fill="#252549"/>
<path d="M23.4 54.0001C23.2579 54.0001 23.1158 53.9659 22.9852 53.8983L0.484909 42.1983C0.187042 42.0434 0 41.7357 0 41.4003V14.4003C0 14.0761 0.174683 13.7766 0.456482 13.6171C0.737869 13.4569 1.08435 13.4614 1.36244 13.6287L23.8627 27.1287C24.1334 27.2918 24.2998 27.5843 24.2998 27.9003V53.0999C24.2998 53.4151 24.1354 53.7059 23.8672 53.8695C23.7239 53.956 23.562 54.0001 23.4 54.0001ZM1.79997 40.854L22.4999 51.618V28.4095L1.79997 15.9894V40.854Z" fill="#191938"/>
<path d="M23.4002 4.04983C22.9033 4.04983 22.5 3.64691 22.5 3.15005V0.900192C22.5 0.403335 22.9033 0 23.4002 0C23.897 0 24.3 0.403335 24.3 0.900192V3.15005C24.3 3.64691 23.8979 4.04983 23.4002 4.04983Z" fill="#1DD882"/>
<path d="M23.4002 22.05C22.9033 22.05 22.5 21.6466 22.5 21.1502V16.6501C22.5 16.1532 22.9033 15.7499 23.4002 15.7499C23.897 15.7499 24.3 16.1532 24.3 16.6501V21.1502C24.3 21.6466 23.8979 22.05 23.4002 22.05ZM23.4002 13.0501C22.9033 13.0501 22.5 12.6468 22.5 12.1499V7.65019C22.5 7.15334 22.9033 6.75 23.4002 6.75C23.897 6.75 24.3 7.15334 24.3 7.65019V12.1499C24.3 12.6468 23.8979 13.0501 23.4002 13.0501Z" fill="#1DD882"/>
<path d="M23.4002 28.7998C22.9033 28.7998 22.5 28.3965 22.5 27.9001V25.6498C22.5 25.1529 22.9033 24.75 23.4002 24.75C23.897 24.75 24.3 25.1529 24.3 25.6498V27.9001C24.3 28.3965 23.8979 28.7998 23.4002 28.7998Z" fill="#1DD882"/>
<path d="M21.4705 29.957C21.1648 29.957 20.867 29.8013 20.6985 29.5207C20.443 29.0939 20.5815 28.5414 21.007 28.286L22.9368 27.1283C23.3632 26.8729 23.9161 27.0105 24.1715 27.4373C24.4274 27.8637 24.2885 28.4162 23.8629 28.672L21.9332 29.8293C21.7886 29.9158 21.6283 29.957 21.4705 29.957Z" fill="#1DD882"/>
<path d="M6.56083 38.9062C6.25472 38.9062 5.95686 38.7505 5.78877 38.4699C5.53292 38.0431 5.67053 37.4906 6.09734 37.2352L9.825 34.9977C10.2518 34.7418 10.8043 34.8798 11.0597 35.3062C11.3156 35.7331 11.178 36.2855 10.7512 36.541L7.02349 38.7785C6.87765 38.865 6.71821 38.9062 6.56083 38.9062ZM14.0174 34.4316C13.7113 34.4316 13.4134 34.2759 13.2449 33.9949C12.9895 33.5685 13.1279 33.0156 13.5539 32.7602L17.2824 30.5227C17.7092 30.2672 18.2609 30.4057 18.5171 30.8316C18.773 31.2581 18.6341 31.8105 18.2085 32.0664L14.48 34.3035C14.3342 34.39 14.1748 34.4316 14.0174 34.4316Z" fill="#1DD882"/>
<path d="M0.900792 42.3004C0.594686 42.3004 0.296819 42.1446 0.128317 41.8641C-0.127116 41.4372 0.0104881 40.8848 0.437307 40.6289L2.36664 39.4717C2.79346 39.215 3.34594 39.3538 3.60178 39.7802C3.85721 40.2071 3.71961 40.7595 3.29279 41.0154L1.36345 42.1726C1.21761 42.2592 1.05817 42.3004 0.900792 42.3004Z" fill="#1DD882"/>
<path d="M25.3292 29.9575C25.1718 29.9575 25.0115 29.9163 24.8665 29.829L22.9372 28.6717C22.5104 28.4158 22.3728 27.8634 22.6286 27.4365C22.884 27.0101 23.4365 26.8734 23.8633 27.128L25.7927 28.2857C26.2195 28.5411 26.3571 29.0936 26.1017 29.5204C25.9332 29.8018 25.6353 29.9575 25.3292 29.9575Z" fill="#1DD882"/>
<path d="M40.2411 38.9051C40.0838 38.9051 39.9235 38.8639 39.7785 38.7766L36.0508 36.5399C35.624 36.2845 35.4864 35.7316 35.7422 35.3052C35.9977 34.8784 36.5501 34.7408 36.977 34.9966L40.7046 37.2329C41.1314 37.4887 41.269 38.0412 41.0132 38.4676C40.8451 38.7494 40.5472 38.9051 40.2411 38.9051ZM32.7846 34.4314C32.6272 34.4314 32.4669 34.3897 32.3219 34.3024L28.5934 32.0661C28.1666 31.8103 28.029 31.2578 28.2849 30.8314C28.5403 30.4038 29.0928 30.2662 29.5196 30.5224L33.2481 32.7591C33.6749 33.0145 33.8125 33.5674 33.5571 33.9938C33.3886 34.2756 33.0907 34.4314 32.7846 34.4314Z" fill="#1DD882"/>
<path d="M45.8996 42.2998C45.7422 42.2998 45.582 42.2586 45.437 42.1713L43.5076 41.0136C43.0808 40.7582 42.9432 40.2057 43.1986 39.7789C43.4545 39.3525 44.0069 39.2145 44.4334 39.4703L46.3631 40.6276C46.7899 40.8834 46.9275 41.4359 46.6717 41.8623C46.5036 42.1441 46.2057 42.2998 45.8996 42.2998Z" fill="#1DD882"/>
</svg>
