<svg width="54" height="54" viewBox="0 0 54 54" fill="none" xmlns="http://www.w3.org/2000/svg">
<g clip-path="url(#clip0)">
<path d="M53.0692 48.4141H49.3451C48.831 48.4141 48.4141 48.8305 48.4141 49.3451V53.0692C48.4141 53.5838 48.831 54.0003 49.3451 54.0003C49.8593 54.0003 50.2762 53.5839 50.2762 53.0692V50.2762H53.0693C53.5835 50.2762 54.0004 49.8598 54.0004 49.3451C54.0003 48.8306 53.5834 48.4141 53.0692 48.4141Z" fill="#1DD882"/>
<path d="M49.3451 5.58626H53.0692C53.5834 5.58626 54.0003 5.16934 54.0003 4.65518C54.0003 4.14102 53.5834 3.7241 53.0692 3.7241H50.2762V0.931078C50.2762 0.416918 49.8593 0 49.3451 0C48.831 0 48.4141 0.416918 48.4141 0.931078V4.65518C48.4141 5.16934 48.831 5.58626 49.3451 5.58626Z" fill="#1DD882"/>
<path d="M4.65518 0C4.14102 0 3.7241 0.416918 3.7241 0.931078V3.7241H0.931078C0.416918 3.7241 0 4.14102 0 4.65518C0 5.16934 0.416918 5.58626 0.931078 5.58626H4.65518C5.16934 5.58626 5.58626 5.16934 5.58626 4.65518V0.931078C5.58626 0.416918 5.16934 0 4.65518 0Z" fill="#1DD882"/>
<path d="M4.65518 48.4141H0.931078C0.416918 48.4141 0 48.8305 0 49.3451C0 49.8597 0.416918 50.2762 0.931078 50.2762H3.7241V53.0693C3.7241 53.5839 4.14102 54.0004 4.65518 54.0004C5.16934 54.0004 5.58626 53.584 5.58626 53.0693V49.3452C5.58626 48.8306 5.16934 48.4141 4.65518 48.4141Z" fill="#1DD882"/>
<path d="M14.1019 9.44866C14.1019 8.9345 13.685 8.51758 13.1708 8.51758H9.4467C8.93254 8.51758 8.51562 8.9345 8.51562 9.44866V13.1728C8.51562 13.6869 8.93254 14.1038 9.4467 14.1038H10.3778H12.2398H13.1709C13.6851 14.1038 14.102 13.6869 14.102 13.1728V12.2417V10.3796V9.44866H14.1019Z" stroke="#252549" stroke-width="1.8"/>
<path d="M29.7894 9.44866C29.7894 8.9345 29.3725 8.51758 28.8583 8.51758H25.1342C24.62 8.51758 24.2031 8.9345 24.2031 9.44866V10.3797V12.2418V13.1729C24.2031 13.687 24.62 14.1039 25.1342 14.1039H28.8583C29.3725 14.1039 29.7894 13.687 29.7894 13.1729V12.2418V10.3796V9.44866Z" stroke="#252549" stroke-width="1.8"/>
<path d="M44.5497 8.51758H40.8256C40.3114 8.51758 39.8945 8.9345 39.8945 9.44866V10.3797V12.2418V13.1729C39.8945 13.687 40.3114 14.1039 40.8256 14.1039H41.7567H43.6187H44.5498C45.064 14.1039 45.4809 13.687 45.4809 13.1729V9.44876C45.4808 8.9345 45.0639 8.51758 44.5497 8.51758Z" stroke="#252549" stroke-width="1.8"/>
<path d="M14.102 40.8276C14.102 40.3134 13.6851 39.8965 13.1709 39.8965H12.2398H10.3778H9.4467C8.93254 39.8965 8.51562 40.3134 8.51562 40.8276V44.5517C8.51562 45.0658 8.93254 45.4827 9.4467 45.4827H13.1708C13.685 45.4827 14.1019 45.0658 14.1019 44.5517V43.6206V41.7585V40.8276H14.102Z" stroke="#252549" stroke-width="1.8"/>
<path d="M29.7894 40.8276C29.7894 40.3134 29.3725 39.8965 28.8583 39.8965H25.1342C24.62 39.8965 24.2031 40.3134 24.2031 40.8276V41.7586V43.6207V44.5518C24.2031 45.0659 24.62 45.4828 25.1342 45.4828H28.8583C29.3725 45.4828 29.7894 45.0659 29.7894 44.5518V43.6207V41.7586V40.8276Z" stroke="#252549" stroke-width="1.8"/>
<path d="M44.5498 39.8965H43.6187H41.7567H40.8256C40.3114 39.8965 39.8945 40.3134 39.8945 40.8276V41.7586V43.6207V44.5518C39.8945 45.0659 40.3114 45.4828 40.8256 45.4828H44.5497C45.0639 45.4828 45.4808 45.0659 45.4808 44.5518V40.8277C45.4809 40.3134 45.064 39.8965 44.5498 39.8965Z" stroke="#252549" stroke-width="1.8"/>
<path d="M9.44681 29.7943H10.3779H12.2399H13.171C13.6852 29.7943 14.1021 29.3773 14.1021 28.8632V25.1391C14.1021 24.6249 13.6852 24.208 13.171 24.208H12.2399H10.3778H9.4467C8.93254 24.208 8.51562 24.6249 8.51562 25.1391V28.8632C8.51573 29.3773 8.93265 29.7943 9.44681 29.7943Z" stroke="#252549" stroke-width="1.8"/>
<path d="M44.5498 24.208H43.6187H41.7567H40.8256C40.3114 24.208 39.8945 24.6249 39.8945 25.1391V28.8632C39.8945 29.3773 40.3114 29.7943 40.8256 29.7943H41.7567H43.6187H44.5498C45.064 29.7943 45.4809 29.3773 45.4809 28.8632V25.1391C45.4809 24.6249 45.064 24.208 44.5498 24.208Z" stroke="#252549" stroke-width="1.8"/>
<path d="M25.1342 29.7943H28.8583C29.3725 29.7943 29.7894 29.3773 29.7894 28.8632V25.1391C29.7894 24.6249 29.3725 24.208 28.8583 24.208H25.1342C24.62 24.208 24.2031 24.6249 24.2031 25.1391V28.8632C24.2031 29.3773 24.62 29.7943 25.1342 29.7943Z" stroke="#252549" stroke-width="1.8"/>
</g>
<defs>
<clipPath id="clip0">
<rect width="54" height="54" fill="white"/>
</clipPath>
</defs>
</svg>
