<svg width="421" height="95" viewBox="0 0 421 95" fill="none" xmlns="http://www.w3.org/2000/svg">
    <path d="M0 64.4639V71.2496L41.1362 94.9997V88.214L0 64.4639Z" fill="#171735"/>
    <path d="M5.8766 27.1429L0 23.75V71.25L5.8766 74.6428V27.1429Z" fill="#171735"/>
    <path d="M41.1367 0V27.1429L47.0133 23.75V3.39286L41.1367 0Z" fill="url(#paint0_linear)"/>
    <path d="M41.1362 0L0 23.75L5.8766 27.1429L47.0128 3.39286L41.1362 0Z" fill="#232345"/>
    <path d="M35.2598 78.036V44.1074L41.1364 47.5003V81.4288L35.2598 78.036Z" fill="#171735"/>
    <path d="M82.2731 71.2503L76.3965 67.8574V20.3574L82.2731 23.7503V71.2503Z" fill="url(#paint1_linear)"/>
    <path d="M41.1367 88.214V94.9997L82.2729 71.2496V64.4639L41.1367 88.214Z" fill="#232345"/>
    <path d="M76.396 20.3574L35.2598 44.1074L41.1364 47.5003L82.2726 23.7503L76.396 20.3574Z" fill="#232345"/>
    <path d="M47.0137 50.8927V57.6784L70.5201 44.107V37.3213L47.0137 50.8927Z" fill="#1DD882"/>
    <path d="M47.0137 64.4644V71.2501L58.7669 64.4644V57.6787L47.0137 64.4644Z" fill="#1AD27E"/>
    <path d="M64.6422 27.143L58.7656 30.5359V10.1787L64.6422 13.5716V27.143Z" fill="url(#paint2_linear)"/>
    <path d="M58.7651 10.1787L17.6289 33.9287L23.5055 37.3216L64.6417 13.5716L58.7651 10.1787Z" fill="#1DD882"/>
    <path d="M17.6289 33.9287V67.8573L23.5055 71.2501V37.3216L17.6289 33.9287Z" fill="#13C674"/>
    <path d="M108.496 51.7731C108.565 54.1385 110.296 55.3211 113.69 55.3211C114.992 55.3211 116.055 55.0468 116.878 54.4984C117.735 53.9156 118.163 53.2471 118.163 52.493C118.163 51.7389 117.906 51.1561 117.392 50.7447C116.878 50.3334 116.072 49.9562 114.975 49.6135L109.524 47.6595C105.479 46.254 103.457 43.9572 103.457 40.7692C103.457 38.6438 104.4 36.9469 106.285 35.6786C108.205 34.3759 110.759 33.7246 113.947 33.7246C117.169 33.7246 119.637 34.4273 121.351 35.8328C123.099 37.2384 124.008 39.0037 124.076 41.1291H118.369C118.3 40.3064 117.906 39.6551 117.186 39.1752C116.466 38.6952 115.438 38.4553 114.101 38.4553C112.764 38.4553 111.718 38.7296 110.964 39.278C110.244 39.7922 109.884 40.3921 109.884 41.0777C109.884 42.2776 110.896 43.1688 112.918 43.7516L118.832 45.9626C120.786 46.6139 122.277 47.4538 123.305 48.4822C124.368 49.4764 124.899 50.779 124.899 52.3902C124.899 54.447 123.922 56.2295 121.968 57.7379C119.946 59.3147 117.272 60.1032 113.947 60.1032C110.621 60.1032 107.948 59.3833 105.925 57.9436C103.902 56.4696 102.874 54.4127 102.84 51.7731H108.496Z" fill="#232345"/>
    <path d="M146.749 58.7655C144.487 59.6569 142.705 60.1025 141.402 60.1025C140.098 60.1025 138.951 59.9482 137.956 59.6397C136.997 59.3312 136.139 58.8684 135.385 58.2513C133.809 56.8458 133.02 54.909 133.02 52.4409V38.4545H129.523V34.3923H133.02V27.8105H139.088V34.3923H145.875V38.4545H139.088V52.2352C139.088 54.292 140.065 55.3204 142.019 55.3204C143.013 55.3204 144.299 55.0461 145.875 54.4977L146.749 58.7655Z" fill="#232345"/>
    <path d="M153.902 34.341H159.969V59.3827H153.902V34.341ZM153.182 26.3195C153.182 25.2225 153.506 24.3655 154.159 23.7485C154.809 23.0972 155.735 22.7715 156.935 22.7715C158.1 22.7715 159.008 23.0972 159.661 23.7485C160.345 24.3655 160.689 25.2225 160.689 26.3195C160.689 27.4165 160.345 28.2906 159.661 28.9419C159.008 29.559 158.1 29.8675 156.935 29.8675C155.735 29.8675 154.809 29.559 154.159 28.9419C153.506 28.2906 153.182 27.4165 153.182 26.3195Z" fill="#232345"/>
    <path d="M193.53 59.3835H186.126L179.955 51.3619L174.196 59.3835H166.74L176.459 46.9398L166.74 34.3418H174.196L180.315 42.3634L186.126 34.3418H193.53L183.863 46.9398L193.53 59.3835Z" fill="#232345"/>
    <path d="M197.197 41.2314H211.646V46.5277H197.197V41.2314Z" fill="#232345"/>
    <path d="M222.631 51.7731C222.698 54.1385 224.431 55.3211 227.824 55.3211C229.126 55.3211 230.19 55.0468 231.012 54.4984C231.869 53.9156 232.298 53.2471 232.298 52.493C232.298 51.7389 232.041 51.1561 231.527 50.7447C231.012 50.3334 230.206 49.9562 229.11 49.6135L223.659 47.6595C219.613 46.254 217.592 43.9572 217.592 40.7692C217.592 38.6438 218.533 36.9469 220.42 35.6786C222.338 34.3759 224.893 33.7246 228.081 33.7246C231.303 33.7246 233.771 34.4273 235.486 35.8328C237.234 37.2384 238.142 39.0037 238.211 41.1291H232.504C232.434 40.3064 232.041 39.6551 231.321 39.1752C230.601 38.6952 229.573 38.4553 228.236 38.4553C226.899 38.4553 225.853 38.7296 225.099 39.278C224.379 39.7922 224.019 40.3921 224.019 41.0777C224.019 42.2776 225.03 43.1688 227.053 43.7516L232.966 45.9626C234.92 46.6139 236.411 47.4538 237.44 48.4822C238.502 49.4764 239.034 50.779 239.034 52.3902C239.034 54.447 238.057 56.2295 236.103 57.7379C234.08 59.3147 231.406 60.1032 228.081 60.1032C224.755 60.1032 222.081 59.3833 220.06 57.9436C218.037 56.4696 217.008 54.4127 216.975 51.7731H222.631Z" fill="#232345"/>
    <path d="M249.005 34.3926L254.044 52.2354L258.826 35.7809H264.328L269.11 52.2868L274.201 34.3926H280.269L272.041 59.3828H266.077L261.449 44.4195L256.924 59.3828H250.908L242.629 34.3926H249.005Z" fill="#232345"/>
    <path d="M294.427 44.78C296.415 44.78 298.713 45.1057 301.318 45.757V43.2888C301.318 41.5405 300.958 40.255 300.238 39.4323C299.552 38.5753 298.404 38.1468 296.793 38.1468C295.216 38.1468 293.998 38.4725 293.142 39.1237C292.285 39.7408 291.856 40.6321 291.856 41.7976H285.223C285.223 38.9523 286.218 36.8955 288.205 35.6272C290.228 34.3588 293.039 33.7246 296.638 33.7246C301.78 33.7246 305.105 35.5243 306.614 39.1237C307.128 40.3578 307.385 41.8148 307.385 43.4945V59.3833H302.089L301.626 56.041C300.014 58.7491 297.546 60.1032 294.222 60.1032C291 60.1032 288.496 59.3147 286.714 57.7379C285.069 56.2295 284.246 54.327 284.246 52.0302C284.246 49.6991 285.154 47.9166 286.971 46.6825C288.789 45.4142 291.273 44.78 294.427 44.78ZM301.318 49.6135C299.295 49.065 297.41 48.7908 295.661 48.7908C292.37 48.7908 290.725 49.8878 290.725 52.0816C290.725 53.0072 291.103 53.8128 291.856 54.4984C292.61 55.1497 293.81 55.4754 295.456 55.4754C297.135 55.4754 298.507 54.927 299.569 53.8299C300.667 52.6987 301.249 51.2932 301.318 49.6135Z" fill="#232345"/>
    <path d="M318.829 49.1508C316.807 47.4368 315.795 45.2943 315.795 42.7233C315.795 40.0152 316.859 37.8212 318.983 36.1415C321.04 34.5303 323.389 33.7247 326.027 33.7247C328.701 33.7247 330.93 34.2217 332.712 35.2159C332.918 33.262 333.758 31.6851 335.232 30.4853C336.671 29.2854 338.368 28.6855 340.322 28.6855L340.014 34.496C337.067 34.496 335.54 35.473 335.437 37.427C336.707 39.0038 337.34 40.615 337.34 42.2605C337.34 43.9059 337.049 45.2943 336.466 46.4255C335.884 47.5226 335.095 48.4481 334.1 49.2022C332.044 50.8477 329.542 51.6704 326.593 51.6704C324.914 51.6704 323.389 51.4133 322.017 50.8991C320.646 51.3105 319.96 52.1332 319.96 53.3673C319.96 54.9099 321.263 55.6812 323.868 55.6812H332.249C337.941 55.6812 340.785 57.6694 340.785 61.6459C340.785 62.9829 340.443 64.2856 339.757 65.5539C339.106 66.8566 338.147 68.0049 336.877 68.999C334.067 71.1929 330.536 72.2899 326.285 72.2899C322.171 72.2899 318.829 71.45 316.258 69.7703C313.858 68.1591 312.658 66.1881 312.658 63.857C312.658 62.3144 313.121 61.0803 314.047 60.1548C315.007 59.2634 316.258 58.6978 317.8 58.4579C315.779 57.2238 314.766 55.6984 314.766 53.8815C314.766 52.6816 315.144 51.6876 315.898 50.8991C316.653 50.0764 317.63 49.4936 318.829 49.1508ZM323.456 59.9491C320.235 60.0861 318.623 61.3032 318.623 63.5999C318.623 64.7654 319.291 65.691 320.628 66.3766C322.001 67.0965 323.611 67.4564 325.462 67.4564C327.313 67.4564 328.753 67.3022 329.781 66.9936C330.845 66.6851 331.735 66.2738 332.455 65.7596C333.998 64.7312 334.769 63.4971 334.769 62.0573C334.769 61.4403 334.547 60.9261 334.1 60.5147C333.689 60.1376 333.072 59.9491 332.249 59.9491H323.456ZM331.324 42.6719C331.324 41.2663 330.93 40.1351 330.141 39.2781C329.387 38.3868 328.222 37.9412 326.645 37.9412C325.068 37.9412 323.868 38.3868 323.045 39.2781C322.222 40.1351 321.811 41.2663 321.811 42.6719C321.811 44.043 322.222 45.1743 323.045 46.0656C323.868 46.9569 325.068 47.4025 326.645 47.4025C328.222 47.4025 329.387 46.9569 330.141 46.0656C330.93 45.1743 331.324 44.043 331.324 42.6719Z" fill="#232345"/>
    <path d="M349.2 49.1508C347.177 47.4368 346.166 45.2943 346.166 42.7233C346.166 40.0152 347.228 37.8212 349.354 36.1415C351.411 34.5303 353.759 33.7247 356.399 33.7247C359.072 33.7247 361.3 34.2217 363.083 35.2159C363.289 33.262 364.128 31.6851 365.603 30.4853C367.043 29.2854 368.739 28.6855 370.693 28.6855L370.385 34.496C367.436 34.496 365.911 35.473 365.808 37.427C367.076 39.0038 367.711 40.615 367.711 42.2605C367.711 43.9059 367.419 45.2943 366.837 46.4255C366.254 47.5226 365.465 48.4481 364.472 49.2022C362.415 50.8477 359.911 51.6704 356.964 51.6704C355.283 51.6704 353.759 51.4133 352.388 50.8991C351.016 51.3105 350.331 52.1332 350.331 53.3673C350.331 54.9099 351.633 55.6812 354.239 55.6812H362.62C368.31 55.6812 371.156 57.6694 371.156 61.6459C371.156 62.9829 370.812 64.2856 370.128 65.5539C369.476 66.8566 368.516 68.0049 367.248 68.999C364.436 71.1929 360.906 72.2899 356.656 72.2899C352.542 72.2899 349.2 71.45 346.629 69.7703C344.228 68.1591 343.029 66.1881 343.029 63.857C343.029 62.3144 343.492 61.0803 344.418 60.1548C345.377 59.2634 346.629 58.6978 348.171 58.4579C346.148 57.2238 345.138 55.6984 345.138 53.8815C345.138 52.6816 345.514 51.6876 346.269 50.8991C347.022 50.0764 347.999 49.4936 349.2 49.1508ZM353.828 59.9491C350.604 60.0861 348.994 61.3032 348.994 63.5999C348.994 64.7654 349.663 65.691 350.999 66.3766C352.37 67.0965 353.982 67.4564 355.833 67.4564C357.684 67.4564 359.124 67.3022 360.152 66.9936C361.214 66.6851 362.106 66.2738 362.826 65.7596C364.369 64.7312 365.14 63.4971 365.14 62.0573C365.14 61.4403 364.917 60.9261 364.472 60.5147C364.06 60.1376 363.443 59.9491 362.62 59.9491H353.828ZM361.695 42.6719C361.695 41.2663 361.3 40.1351 360.512 39.2781C359.757 38.3868 358.592 37.9412 357.016 37.9412C355.438 37.9412 354.239 38.3868 353.416 39.2781C352.593 40.1351 352.182 41.2663 352.182 42.6719C352.182 44.043 352.593 45.1743 353.416 46.0656C354.239 46.9569 355.438 47.4025 357.016 47.4025C358.592 47.4025 359.757 46.9569 360.512 46.0656C361.3 45.1743 361.695 44.043 361.695 42.6719Z" fill="#232345"/>
    <path d="M394.84 37.3754C395.696 38.4725 396.331 39.7408 396.742 41.1805C397.187 42.6203 397.411 43.9401 397.411 45.1399C397.411 46.3398 397.342 47.4196 397.205 48.3794H381.059C381.127 50.402 381.625 52.0474 382.55 53.3157C383.476 54.5841 384.88 55.2183 386.767 55.2183C389.269 55.2183 390.76 54.1213 391.24 51.9274H397.359C396.948 54.4298 395.799 56.401 393.914 57.8407C391.96 59.3491 389.577 60.1032 386.767 60.1032C383.476 60.1032 380.715 58.9034 378.488 56.5038C376.19 54.0014 375.043 50.7961 375.043 46.8882C375.043 42.8774 376.19 39.6551 378.488 37.2212C380.682 34.8901 383.441 33.7246 386.767 33.7246C390.228 33.7246 392.92 34.9415 394.84 37.3754ZM386.818 38.5581C385.104 38.5581 383.767 39.1237 382.807 40.255C381.847 41.352 381.281 42.7746 381.111 44.5229H391.755C391.755 41.8148 390.897 39.9979 389.184 39.0723C388.531 38.7296 387.744 38.5581 386.818 38.5581Z" fill="#232345"/>
    <path d="M411.183 39.3288C412.692 35.7294 414.954 33.9297 417.97 33.9297C418.554 33.9297 419.291 34.0497 420.181 34.2896L420.079 40.3572C419.119 40.1515 418.176 40.0487 417.25 40.0487C413.206 40.0487 411.183 42.8426 411.183 48.4302V59.3827H405.115V34.341H411.183V39.3288Z" fill="#232345"/>
    <defs>
        <linearGradient id="paint0_linear" x1="44.075" y1="1.07914" x2="44.075" y2="22.7718" gradientUnits="userSpaceOnUse">
            <stop stop-color="#0D0D22"/>
            <stop offset="0.677533" stop-color="#13132D"/>
            <stop offset="1" stop-color="#0D0D22"/>
        </linearGradient>
        <linearGradient id="paint1_linear" x1="79.3348" y1="22.3809" x2="79.3348" y2="68.9981" gradientUnits="userSpaceOnUse">
            <stop stop-color="#0D0D22"/>
            <stop offset="0.345724" stop-color="#171735"/>
            <stop offset="0.677533" stop-color="#13132D"/>
            <stop offset="1" stop-color="#0D0D22"/>
        </linearGradient>
        <linearGradient id="paint2_linear" x1="61.7039" y1="32.6887" x2="70.5905" y2="27.2629" gradientUnits="userSpaceOnUse">
            <stop stop-color="#1DD882"/>
            <stop offset="0.812154" stop-color="#09B466"/>
        </linearGradient>
    </defs>
</svg>
